# xmcd CD database file
#
# Track frame offsets:
#	150
#	26418
#	51120
#
# Disc length: 881 seconds
#
# Revision: 0
# Processed by: cddbd v1.5.1PL2 Copyright (c) Steve Scherf et al.
# Submitted via: CDex 1.51
#
DISCID=1b036f03
DTITLE=元 ちとせ - 語り継ぐこと
DYEAR=2005
DGENRE=JPop
TTITLE0=語り継ぐこと
TTITLE1=月を盗む
TTITLE2=HAPPINESS IS A WARM GUN
EXTD=YEAR: 2005
EXTT0=
EXTT1=
EXTT2=
PLAYORDER=
